<svg viewBox="0 0 256 256" width="256" height="256" font-family="Helvetica, Arial, sans-serif" xmlns="http://www.w3.org/2000/svg" role="img" aria-label="bairn avatar: a personal photo archive for Famly-using households.">
  <g font-family="Helvetica, Arial, sans-serif">
  <rect x="0" y="0" width="256" height="256" fill="#ffffff"/>
  <rect x="0" y="0" width="256" height="256" fill="none" stroke="#e0e0e0" stroke-width="1"/>

  <!-- title block: y 0-90 -->
  <text x="128" y="56" text-anchor="middle" font-size="32" font-weight="700" fill="#4a6741">bairn</text>
  <text x="128" y="76" text-anchor="middle" font-size="10" fill="#707070">collected moments of early learning</text>

  <!-- glyph band: y 90-200. Open photo album spread; each page
       holds a photograph above its caption (the embedded EXIF/XMP). -->
  <g transform="translate(96 100)" stroke="#4a6741" fill="none" stroke-linecap="round">
    <!-- album outline -->
    <rect x="2" y="6" width="60" height="52" stroke-width="2"/>
    <!-- centre binding -->
    <line x1="32" y1="6" x2="32" y2="58" stroke-width="1.5"/>
    <!-- left page: photograph above three caption lines -->
    <rect x="6" y="12" width="20" height="16" stroke-width="1.2"/>
    <line x1="6"  y1="36" x2="26" y2="36" stroke-width="1"/>
    <line x1="6"  y1="42" x2="22" y2="42" stroke-width="1"/>
    <line x1="6"  y1="48" x2="24" y2="48" stroke-width="1"/>
    <!-- right page: same layout -->
    <rect x="38" y="12" width="20" height="16" stroke-width="1.2"/>
    <line x1="38" y1="36" x2="58" y2="36" stroke-width="1"/>
    <line x1="38" y1="42" x2="54" y2="42" stroke-width="1"/>
    <line x1="38" y1="48" x2="56" y2="48" stroke-width="1"/>
  </g>

  <!-- output line: y 200-256 -->
  <line x1="40" y1="200" x2="216" y2="200" stroke="#e0e0e0" stroke-width="1"/>
  <text x="128" y="218" text-anchor="middle" font-size="9" font-weight="600" fill="#0a0a0a">dated folders · EXIF/XMP embedded · Immich optional</text>
  <text x="128" y="232" text-anchor="middle" font-size="8" fill="#707070">single household · vendor-survives</text>
  </g>
</svg>
